<?xml version="1.0" encoding="UTF-8"?>
<svg id="Capa_1" data-name="Capa 1" xmlns="http://www.w3.org/2000/svg" version="1.1" viewBox="0 0 1133.86 1133.86">
  <defs>
    <style>
      .cls-1 {
        fill: none;
        stroke: #010101;
        stroke-miterlimit: 10;
      }
    </style>
  </defs>
  <path class="cls-1" d="M691.32,561.79c-1.68,34.68-29.72,62.8-64.4,64.57-11.11.57-21.68-1.55-31.13-5.75-16.38-7.29-35.22-7.29-51.59,0-9.44,4.2-20.02,6.32-31.12,5.75-34.68-1.77-62.72-29.89-64.4-64.57-1.89-39.04,29.32-71.4,67.95-71.4,9.66,0,18.86,2.02,27.19,5.67,16.69,7.31,35.68,7.31,52.37,0,8.33-3.65,17.53-5.67,27.19-5.67,38.63,0,69.84,32.36,67.95,71.4Z"/>
  <circle class="cls-1" cx="516.62" cy="558.42" r="39.69"/>
  <circle class="cls-1" cx="623.37" cy="558.42" r="39.69"/>
</svg>