<?xml version="1.0" encoding="UTF-8"?>
<svg id="Capa_1" data-name="Capa 1" xmlns="http://www.w3.org/2000/svg" version="1.1" viewBox="0 0 850.39 850.39">
  <defs>
    <style>
      .cls-1 {
        fill: #b28c4f;
        stroke-width: 0px;
      }
    </style>
  </defs>
  <path class="cls-1" d="M845.39,381.3v-34.56h-417.12l-83.96,83.98h-182.71c-10.02-24.78-32.98-42.79-62.74-42.79-36.19,0-64.22,29.56-64.22,64.2s28.03,65.93,64.22,65.93c33.12,0,59.36-21.42,64.35-51.02h195.9l83.98-85.73h402.3Z"/>
  <path class="cls-1" d="M133.6,98.06h185.95l84.13,85.55h441.71v-36.13h-425.14l-85.71-84.16h-197.71c-6.64-29.6-33.01-52.61-64.35-52.61C36.43,10.71,6.66,40.31,6.66,76.49s29.76,64.35,65.82,64.35c27.99,0,52.74-16.42,61.12-42.77"/>
  <path class="cls-1" d="M237.19,198.42c-36.04,0-65.79,29.65-65.79,66.01s29.75,65.91,65.79,65.91c29.76,0,56.13-19.95,62.74-47.94h545.46v-36.19H299.93c-6.61-27.97-32.98-47.79-62.74-47.79"/>
</svg>