<?xml version="1.0" encoding="UTF-8"?>
<svg id="Capa_2" data-name="Capa 2" xmlns="http://www.w3.org/2000/svg" version="1.1" viewBox="0 0 841.92 595.2">
  <defs>
    <style>
      .cls-1 {
        fill: none;
        stroke: #000;
        stroke-miterlimit: 10;
      }
    </style>
  </defs>
  <path class="cls-1" d="M671.81,285.92c3.41,9.3,5.05,19.45,4.54,30.02-1.9,39.07-33.52,70.72-72.59,72.65-20.32,1-39.04-5.97-53.28-18.05-6.74-5.71-16.12-7.37-24.31-4.05-8.85,3.59-18.52,5.56-28.65,5.56-.08,0-.17,0-.25,0-13.86-.04-27.29,5.28-36.77,15.4-14.34,15.32-34.89,24.76-57.6,24.26-40.91-.91-74.2-34.46-74.79-75.38-.21-14.84,3.81-28.73,10.94-40.55,10.19-16.89,13.49-36.91,10.04-56.33-.98-5.51-1.37-11.23-1.09-17.08,1.84-39.37,33.84-71.18,73.22-72.82,2.46-.1,4.89-.09,7.3.04,12.02.63,23.62-4.29,31.51-13.38,14.04-16.17,34.74-26.41,57.79-26.41,16.71,0,32.19,5.38,44.8,14.51,9.95,7.2,22.77,9.38,34.57,5.98,7.51-2.16,15.49-3.21,23.74-2.93,40.28,1.33,72.92,34.23,73.94,74.53.48,19.04-6.04,36.58-17.16,50.23-7.75,9.51-10.1,22.29-5.88,33.81Z"/>
  <circle class="cls-1" cx="517.8" cy="186.33" r="39.69"/>
  <circle class="cls-1" cx="618.33" cy="203.84" r="39.69"/>
  <circle class="cls-1" cx="599.9" cy="312.15" r="39.69"/>
  <circle class="cls-1" cx="497.51" cy="295.5" r="39.69"/>
  <circle class="cls-1" cx="404.62" cy="335.19" r="39.69"/>
  <circle class="cls-1" cx="424.44" cy="226.02" r="39.69"/>
</svg>